<svg xmlns="http://www.w3.org/2000/svg" width="43.17" height="45.443" viewBox="0 0 43.17 45.443">
  <g id="burguer" transform="translate(-123.376 -68.831)">
    <g id="Grupo_160" data-name="Grupo 160">
      <ellipse id="Elipse_20" data-name="Elipse 20" cx="17.236" cy="9.168" rx="17.236" ry="9.168" transform="translate(127.135 95.552)" fill="#b15312"/>
      <path id="Trazado_576" data-name="Trazado 576" d="M126.271,101.63s.062,3.455,1.391,5.342,32.044,2.092,33.284.262,1.524-5.6,1.524-5.6Z" fill="#b15312"/>
      <ellipse id="Elipse_21" data-name="Elipse 21" cx="18.1" cy="9.628" rx="18.1" ry="9.628" transform="translate(126.271 92.002)" fill="#d2742e"/>
    </g>
    <g id="Grupo_161" data-name="Grupo 161">
      <path id="Trazado_577" data-name="Trazado 577" d="M166.543,100c.123-2.249-3.382-2.457-5.567-2.985-1.249-.3-.519-1.423-1.7-1.046-4.074,1.3-6.788,2.877-11.384,2.734-6.737-.209-13.523-1.154-20.245-1.671a.7.7,0,0,0-.756.44c-1.4.053-4.8,1.146-3,2.621.73.6,2.131,1.6,1.5,2.389-.9,1.128-1.381,2.913-.656,3.963.517.747,2.945-1.142,4.9.044,1.32.8-.707,2.639,2.048,3.675.95.357,2.653-1.4,3.466-1.224,2.516.546,1.288,3.754,3.017,4.571,2.174,1.029,3.239-7.171,6.457-2.4,1.273,1.885,2.364,3.3,3.652,3.161,3.512-.381,2.89-4.312,3.324-4.67,2.2-1.811,3.931,2.324,7.258.884,1.933-.836.018-3.633.66-5.031C160.75,102.756,166.339,103.769,166.543,100Z" fill="#b4e20e"/>
      <path id="Trazado_578" data-name="Trazado 578" d="M129.739,101.764s-2.7.3-3.41,1.262-1.067,1.636-.444,2.055,5.16-1.631,5.16-1.631Z" fill="#a0c600"/>
      <path id="Trazado_579" data-name="Trazado 579" d="M133.183,104.809a6.783,6.783,0,0,0-1.032,2.046c-.483,1.4.517,1.936,2.064.958s1.8-1.494,1.8-1.494Z" fill="#a0c600"/>
      <path id="Trazado_580" data-name="Trazado 580" d="M138.111,108.5a16.261,16.261,0,0,0,0,2.748c.141,1.1,1.514-.227,1.673-1.963S138.111,108.5,138.111,108.5Z" fill="#a0c600"/>
      <path id="Trazado_581" data-name="Trazado 581" d="M144.616,108.42s1.449,1.631,2.436,2.825a1.331,1.331,0,0,0,2.31-1.3,4.506,4.506,0,0,0-1.559-2.433Z" fill="#a0c600"/>
      <path id="Trazado_582" data-name="Trazado 582" d="M152.348,106.561a16.354,16.354,0,0,1,3.433,1.676c1.245.91,2.651,1.023,1.584-1.035s-1.673-2.121-1.673-2.121Z" fill="#a0c600"/>
      <path id="Trazado_583" data-name="Trazado 583" d="M160,101.695c.318-.111,4.144.228,4.589-.92s-2.21-1.131-2.21-1.131Z" fill="#a0c600"/>
    </g>
    <g id="Grupo_162" data-name="Grupo 162">
      <path id="Trazado_584" data-name="Trazado 584" d="M141.535,88.564l-17.392,8.7a43.6,43.6,0,0,0,6.5,6.716,48.581,48.581,0,0,0,9.483,5.459,63.455,63.455,0,0,0,12.443-3.7,65.128,65.128,0,0,0,11.5-7.3S147.091,86.461,141.535,88.564Z" fill="#ffd654"/>
      <path id="Trazado_585" data-name="Trazado 585" d="M124.143,97.26s4.879,6.575,10.181,9.756,5.916,3.45,5.916,3.45,9.455-2.2,12.395-3.45a29.845,29.845,0,0,0,11.441-8.58s-9.037,6.742-15.188,8.3-8.554,2.156-8.554,2.156-5.092-2.861-9.616-6.045C128.388,101.205,124.143,97.26,124.143,97.26Z" fill="#feb52c"/>
    </g>
    <g id="Grupo_163" data-name="Grupo 163">
      <ellipse id="Elipse_22" data-name="Elipse 22" cx="17.78" cy="9.458" rx="17.78" ry="9.458" transform="translate(126.329 85.894)" fill="#b15312"/>
      <path id="Trazado_586" data-name="Trazado 586" d="M161.836,96.058l-35.507-.706a7.793,7.793,0,0,1,2.05-6.243c5.232-6,26.455-5.648,31.843.621C162.34,92.194,161.836,96.058,161.836,96.058Z" fill="#b15312"/>
      <ellipse id="Elipse_23" data-name="Elipse 23" cx="16.766" cy="8.918" rx="16.766" ry="8.918" transform="translate(127.343 83.275)" fill="#d2742e"/>
      <path id="Trazado_587" data-name="Trazado 587" d="M129.618,93.551s-1.159,1.843.142,1.869C131.135,95.447,129.618,93.551,129.618,93.551Z" fill="#ffc648"/>
      <path id="Trazado_588" data-name="Trazado 588" d="M149.837,96.755s-1.159,1.842.142,1.868C151.355,98.651,149.837,96.755,149.837,96.755Z" fill="#ffc648"/>
      <path id="Trazado_589" data-name="Trazado 589" d="M144.823,103.635s1.747-1.3.544-1.794C144.094,101.318,144.823,103.635,144.823,103.635Z" fill="#ffc648"/>
      <path id="Trazado_590" data-name="Trazado 590" d="M148.982,92.673s1.747-1.3.544-1.793C148.253,90.356,148.982,92.673,148.982,92.673Z" fill="#ffc648"/>
      <path id="Trazado_591" data-name="Trazado 591" d="M157.632,98.794s-2.094.6-1.144,1.484C157.493,101.218,157.632,98.794,157.632,98.794Z" fill="#ffc648"/>
      <path id="Trazado_592" data-name="Trazado 592" d="M139.955,98.448s.944-1.69,2.23-1.251S141.585,99.162,139.955,98.448Z" fill="#ffc648"/>
      <path id="Trazado_593" data-name="Trazado 593" d="M142.611,88.529s.943-1.691,2.23-1.252S144.24,89.242,142.611,88.529Z" fill="#ffc648"/>
      <path id="Trazado_594" data-name="Trazado 594" d="M150.556,102.284s.943-1.691,2.23-1.251S152.185,103,150.556,102.284Z" fill="#ffc648"/>
      <path id="Trazado_595" data-name="Trazado 595" d="M132.992,91s-.943-1.691-2.23-1.252S131.362,91.716,132.992,91Z" fill="#ffc648"/>
      <path id="Trazado_596" data-name="Trazado 596" d="M155.248,89.677s-.944-1.691-2.23-1.251S153.618,90.39,155.248,89.677Z" fill="#ffc648"/>
      <path id="Trazado_597" data-name="Trazado 597" d="M131.664,99.2s-.943-1.691-2.23-1.251S130.035,99.917,131.664,99.2Z" fill="#ffc648"/>
      <path id="Trazado_598" data-name="Trazado 598" d="M135.71,93.018s-2.23.663-1.244,1.468S135.71,93.018,135.71,93.018Z" fill="#ffc648"/>
      <path id="Trazado_599" data-name="Trazado 599" d="M150.4,86.566s-.857-2.162-1.572-1.109S150.4,86.566,150.4,86.566Z" fill="#ffc648"/>
      <path id="Trazado_600" data-name="Trazado 600" d="M154.391,94.257s-2.23.662-1.244,1.467S154.391,94.257,154.391,94.257Z" fill="#ffc648"/>
      <path id="Trazado_601" data-name="Trazado 601" d="M141.451,101.81s-2.23.662-1.244,1.468S141.451,101.81,141.451,101.81Z" fill="#ffc648"/>
      <path id="Trazado_602" data-name="Trazado 602" d="M137.661,88.223S136.973,86,136.179,87,137.661,88.223,137.661,88.223Z" fill="#ffc648"/>
      <path id="Trazado_603" data-name="Trazado 603" d="M132.834,99.855s-.374,2.3.78,1.759S132.834,99.855,132.834,99.855Z" fill="#ffc648"/>
      <path id="Trazado_604" data-name="Trazado 604" d="M140.561,91.972s.482,2.276,1.363,1.357S140.561,91.972,140.561,91.972Z" fill="#ffc648"/>
      <path id="Trazado_605" data-name="Trazado 605" d="M132.992,95.484l-.841,1.4,2.064.24Z" fill="#a44105"/>
      <path id="Trazado_606" data-name="Trazado 606" d="M141.049,94.658l-2.187,1.061,1.777.584Z" fill="#a44105"/>
      <path id="Trazado_607" data-name="Trazado 607" d="M136.836,99.644l-.825,2.051,2.4.069Z" fill="#a44105"/>
      <path id="Trazado_608" data-name="Trazado 608" d="M146.816,95.9s-1.329,1.524-1.2,1.574,1.8.409,1.8.409Z" fill="#a44105"/>
      <path id="Trazado_609" data-name="Trazado 609" d="M155.248,96.449l-1.328.858,1.328.943Z" fill="#a44105"/>
      <path id="Trazado_610" data-name="Trazado 610" d="M148.231,99.644l.086,2.362s1.848-2.3,1.632-2.151A5.594,5.594,0,0,1,148.231,99.644Z" fill="#a44105"/>
      <path id="Trazado_611" data-name="Trazado 611" d="M152.9,91.068l-.547,1.475,1.866-.57Z" fill="#a44105"/>
      <path id="Trazado_612" data-name="Trazado 612" d="M157.365,88.716l1.115,2.352.986-1.176Z" fill="#a44105"/>
      <path id="Trazado_613" data-name="Trazado 613" d="M158.416,93.838l-1.222.82,1.672.693Z" fill="#a44105"/>
      <path id="Trazado_614" data-name="Trazado 614" d="M145.267,89.892l-.38,1.389L146.3,90.8Z" fill="#a44105"/>
      <path id="Trazado_615" data-name="Trazado 615" d="M136.011,89.864l1.972,1.2.129-1.389Z" fill="#a44105"/>
      <path id="Trazado_616" data-name="Trazado 616" d="M133.379,86.566l-1.228,1.092s1.715.475,1.629.3S133.379,86.566,133.379,86.566Z" fill="#a44105"/>
      <path id="Trazado_617" data-name="Trazado 617" d="M139.784,85.894l.919,1.388L141.451,86Z" fill="#a44105"/>
      <path id="Trazado_618" data-name="Trazado 618" d="M146.3,84.9l.472,1.661,1.029-.924Z" fill="#a44105"/>
    </g>
    <g id="Grupo_164" data-name="Grupo 164">
      <rect id="Rectángulo_40" data-name="Rectángulo 40" width="31.616" height="1.707" transform="translate(128.302 89.254)" fill="#ed2b2b"/>
      <path id="Trazado_619" data-name="Trazado 619" d="M159.917,90.661c0,4.644-7.077,8.409-15.808,8.409S128.3,95.305,128.3,90.661s7.077-8.408,15.807-8.408S159.917,86.017,159.917,90.661Z" fill="#ed2b2b"/>
      <path id="Trazado_620" data-name="Trazado 620" d="M159.917,89.338c0,4.644-7.077,8.409-15.808,8.409S128.3,93.982,128.3,89.338s7.077-8.408,15.807-8.408S159.917,84.694,159.917,89.338Z" fill="#ff6969"/>
      <path id="Trazado_621" data-name="Trazado 621" d="M158.269,89.338c0,3.913-6.339,7.085-14.16,7.085s-14.159-3.172-14.159-7.085,6.339-7.085,14.159-7.085S158.269,85.425,158.269,89.338Z" fill="#ff4343"/>
      <path id="Trazado_622" data-name="Trazado 622" d="M134.691,92.94c-1.351.042-5.337-4.563-.128-7.688s12.221-2.1,13.664-1.757c2.03.482-.114,2.363-2.515,2.541a19.224,19.224,0,0,0-5.215,1.072c-1.836.8-2.545,2.015-2.485,2.635C138.122,90.881,135.843,92.9,134.691,92.94Z" fill="#ed2b2b"/>
      <path id="Trazado_623" data-name="Trazado 623" d="M139.462,91.091c-1.458.768-3.7,2.783-1.2,3.514A20.991,20.991,0,0,0,152.8,93.454c3.848-1.817,4.762-4.81,2.518-6.914-1.629-1.528-3.247-1.66-4.159-1.067-2.121,1.377-.258,3.822-4.381,4.634C144.351,90.585,141.119,90.219,139.462,91.091Z" fill="#ed2b2b"/>
      <path id="Trazado_624" data-name="Trazado 624" d="M145.383,85.252s1.1-1.435-.229-1.4C144.28,83.87,145.383,85.252,145.383,85.252Z" fill="#ff6969"/>
      <path id="Trazado_625" data-name="Trazado 625" d="M143.889,85.435s0-1.822-1.422-1.6C141.532,83.982,143.889,85.435,143.889,85.435Z" fill="#ff6969"/>
      <path id="Trazado_626" data-name="Trazado 626" d="M141.788,85.609s-.922-1.657-1.951-1.329S141.788,85.609,141.788,85.609Z" fill="#ff6969"/>
      <path id="Trazado_627" data-name="Trazado 627" d="M139.646,86.416s-1.091-1.972-2.508-1.383S139.646,86.416,139.646,86.416Z" fill="#ff6969"/>
      <path id="Trazado_628" data-name="Trazado 628" d="M137.986,87.58s-1.73-2.059-3.316-1.04C133.613,87.219,137.986,87.58,137.986,87.58Z" fill="#ff6969"/>
      <path id="Trazado_629" data-name="Trazado 629" d="M137.022,88.782s-2.538-.874-3.4-.265S135.215,89.981,137.022,88.782Z" fill="#ff6969"/>
      <path id="Trazado_630" data-name="Trazado 630" d="M136.829,90.107a6.437,6.437,0,0,0-2.624.646c-.418.285,0,.977.838.814A2.261,2.261,0,0,0,136.829,90.107Z" fill="#ff6969"/>
      <path id="Trazado_631" data-name="Trazado 631" d="M151.072,86.918a2.772,2.772,0,0,1,1.822-.661c1.03.057,1.523.722.3.808A7.336,7.336,0,0,1,151.072,86.918Z" fill="#ff6969"/>
      <path id="Trazado_632" data-name="Trazado 632" d="M140.5,91.482a5.713,5.713,0,0,0-1.6,1.329c-.343.579.986,1.18,1.393.129S140.5,91.482,140.5,91.482Z" fill="#ff6969"/>
      <path id="Trazado_633" data-name="Trazado 633" d="M142.386,91.482a2.178,2.178,0,0,0-.448,1.458c.043.9,1.21,1.115,1.131,0A1.766,1.766,0,0,0,142.386,91.482Z" fill="#ff6969"/>
      <path id="Trazado_634" data-name="Trazado 634" d="M144.4,91.249a7.041,7.041,0,0,0,.257,1.691c.236.728,1.93,1.115,1.244-.172A2.9,2.9,0,0,0,144.4,91.249Z" fill="#ff6969"/>
      <path id="Trazado_635" data-name="Trazado 635" d="M146.83,91.074A6,6,0,0,0,148.2,92.94c.9.793,1.844.192,1.008-.708A4.811,4.811,0,0,0,146.83,91.074Z" fill="#ff6969"/>
      <path id="Trazado_636" data-name="Trazado 636" d="M148.949,90.274a8.188,8.188,0,0,0,1.973,1.7c1.072.6,2.144.021.858-.729A8.917,8.917,0,0,0,148.949,90.274Z" fill="#ff6969"/>
      <path id="Trazado_637" data-name="Trazado 637" d="M150.515,89.063a10.278,10.278,0,0,0,2.958,1.411c1.137.178,1.866-1.029.579-1.244A25.277,25.277,0,0,0,150.515,89.063Z" fill="#ff6969"/>
      <path id="Trazado_638" data-name="Trazado 638" d="M151.231,88.089a7.788,7.788,0,0,1,2.457-.381c.922.107,1.715.729.729.772A20.041,20.041,0,0,1,151.231,88.089Z" fill="#ff6969"/>
    </g>
    <g id="Grupo_165" data-name="Grupo 165">
      <path id="Trazado_639" data-name="Trazado 639" d="M165.378,86.229c.117-2.149-3.233-2.348-5.321-2.853-1.194-.288-.5-1.36-1.626-1-3.894,1.244-6.489,2.749-10.881,2.612-6.439-.2-12.926-1.1-19.351-1.6a.674.674,0,0,0-.723.421c-1.334.051-4.586,1.095-2.87,2.5.7.573,2.037,1.529,1.438,2.284-.856,1.078-1.32,2.784-.627,3.787.494.715,2.815-1.091,4.681.042,1.262.766-.676,2.523,1.958,3.513.908.341,2.536-1.339,3.313-1.17,2.4.522,1.231,3.588,2.883,4.37,2.079.983,3.1-6.855,6.172-2.3,1.216,1.8,2.259,3.156,3.491,3.022,3.357-.364,2.762-4.122,3.177-4.464,2.105-1.731,3.757,2.222,6.938.845,1.847-.8.017-3.473.63-4.809C159.841,88.869,165.182,89.836,165.378,86.229Z" fill="#b4e20e"/>
      <path id="Trazado_640" data-name="Trazado 640" d="M130.2,87.92s-2.579.288-3.259,1.206-1.021,1.564-.425,1.964,4.932-1.558,4.932-1.558Z" fill="#a0c600"/>
      <path id="Trazado_641" data-name="Trazado 641" d="M133.491,90.831a6.462,6.462,0,0,0-.986,1.955c-.461,1.341.495,1.851,1.973.916s1.717-1.428,1.717-1.428Z" fill="#a0c600"/>
      <path id="Trazado_642" data-name="Trazado 642" d="M138.2,94.355a15.522,15.522,0,0,0,0,2.627c.135,1.057,1.447-.217,1.6-1.876S138.2,94.355,138.2,94.355Z" fill="#a0c600"/>
      <path id="Trazado_643" data-name="Trazado 643" d="M144.419,94.282s1.385,1.559,2.329,2.7a1.272,1.272,0,0,0,2.207-1.244,4.3,4.3,0,0,0-1.49-2.326Z" fill="#a0c600"/>
      <path id="Trazado_644" data-name="Trazado 644" d="M151.81,92.5a15.621,15.621,0,0,1,3.281,1.6c1.19.87,2.534.978,1.514-.989s-1.6-2.028-1.6-2.028Z" fill="#a0c600"/>
      <path id="Trazado_645" data-name="Trazado 645" d="M159.124,87.854c.3-.106,3.961.219,4.386-.879s-2.112-1.081-2.112-1.081Z" fill="#a0c600"/>
    </g>
    <g id="Grupo_168" data-name="Grupo 168">
      <g id="Grupo_166" data-name="Grupo 166">
        <path id="Trazado_646" data-name="Trazado 646" d="M146.607,88.131c8.85-1.281,12.4-6.492,11.975-12.565a18.518,18.518,0,0,0-14.473-6.735c-8.812,0-16.109,5.846-17.733,13.578C129.5,89.391,139.31,89.186,146.607,88.131Z" fill="#d2742e"/>
        <path id="Trazado_647" data-name="Trazado 647" d="M126.01,85.092c0,.024.006.048.006.072s-.006.058-.006.087h.015c.161,5.243,8.189,9.469,18.084,9.469s17.924-4.226,18.085-9.469h.015c0-.029-.006-.058-.007-.087s.007-.048.007-.072a5.162,5.162,0,0,0-.071-.746,16.063,16.063,0,0,0-3.556-8.78c.43,6.073-3.125,11.284-11.975,12.565-7.3,1.055-17.1,1.26-20.231-5.722a15.928,15.928,0,0,0-.3,1.937A5.305,5.305,0,0,0,126.01,85.092Z" fill="#b15312"/>
      </g>
      <path id="Trazado_648" data-name="Trazado 648" d="M139.467,73.608a1.1,1.1,0,1,1-1.061-.805A.96.96,0,0,1,139.467,73.608Z" fill="#b15312"/>
      <path id="Trazado_649" data-name="Trazado 649" d="M145.81,82.3a1.1,1.1,0,1,1-1.06-.8A.959.959,0,0,1,145.81,82.3Z" fill="#b15312"/>
      <path id="Trazado_650" data-name="Trazado 650" d="M134.283,75.661a1.1,1.1,0,1,1-1.3-.3A.96.96,0,0,1,134.283,75.661Z" fill="#b15312"/>
      <path id="Trazado_651" data-name="Trazado 651" d="M145.547,71.655a1.1,1.1,0,1,1-1.061-.805A.96.96,0,0,1,145.547,71.655Z" fill="#b15312"/>
      <path id="Trazado_652" data-name="Trazado 652" d="M148,76.461a.96.96,0,0,1-1.207.562c-.572-.124-.96-.576-.867-1.01a.96.96,0,0,1,1.207-.562C147.7,75.574,148.091,76.026,148,76.461Z" fill="#b15312"/>
      <path id="Trazado_653" data-name="Trazado 653" d="M152.977,80.437a1.1,1.1,0,1,1-.533-1.22A.96.96,0,0,1,152.977,80.437Z" fill="#b15312"/>
      <path id="Trazado_654" data-name="Trazado 654" d="M139.461,79.8c.047.442-.386.851-.968.915a.96.96,0,0,1-1.141-.686c-.048-.441.385-.85.968-.914A.96.96,0,0,1,139.461,79.8Z" fill="#b15312"/>
      <path id="Trazado_655" data-name="Trazado 655" d="M133.69,80.119a1.1,1.1,0,1,1-1.33-.051A.959.959,0,0,1,133.69,80.119Z" fill="#b15312"/>
      <path id="Trazado_656" data-name="Trazado 656" d="M155.972,76.856a1.1,1.1,0,1,1-.163-1.32A.959.959,0,0,1,155.972,76.856Z" fill="#b15312"/>
      <g id="Grupo_167" data-name="Grupo 167">
        <path id="Trazado_657" data-name="Trazado 657" d="M134.215,83.275s.29-2.484,1.5-1.652C136.551,82.2,134.215,83.275,134.215,83.275Z" fill="#ffc648"/>
        <path id="Trazado_658" data-name="Trazado 658" d="M148.711,73.715s.29-2.485,1.495-1.652C151.047,72.643,148.711,73.715,148.711,73.715Z" fill="#ffc648"/>
        <path id="Trazado_659" data-name="Trazado 659" d="M141.9,77.695s-1.795-1.107-.739-1.626C142.608,75.356,141.9,77.695,141.9,77.695Z" fill="#ffc648"/>
        <path id="Trazado_660" data-name="Trazado 660" d="M131.408,78.576s-1.795-1.107-.739-1.627C132.117,76.237,131.408,78.576,131.408,78.576Z" fill="#ffc648"/>
        <path id="Trazado_661" data-name="Trazado 661" d="M140.5,81.531s-1.521,2.015.207,1.93C141.82,83.407,140.5,81.531,140.5,81.531Z" fill="#ffc648"/>
        <path id="Trazado_662" data-name="Trazado 662" d="M146.067,79.111s2.98.105,2.628.761C147.8,81.531,146.067,79.111,146.067,79.111Z" fill="#ffc648"/>
        <path id="Trazado_663" data-name="Trazado 663" d="M139.72,70.79s2.981.1,2.628.761C141.456,73.21,139.72,70.79,139.72,70.79Z" fill="#ffc648"/>
        <path id="Trazado_664" data-name="Trazado 664" d="M150.4,76.1c.456-1.338,2.49.958,2.49.958S150.01,77.255,150.4,76.1Z" fill="#ffc648"/>
        <path id="Trazado_665" data-name="Trazado 665" d="M136.122,76.538c.456-1.338,2.49.958,2.49.958S135.727,77.7,136.122,76.538Z" fill="#ffc648"/>
      </g>
    </g>
  </g>
</svg>
